<?xml version="1.0" encoding="UTF-8"?>
<svg id="Layer_1" data-name="Layer 1" xmlns="http://www.w3.org/2000/svg" xmlns:xlink="http://www.w3.org/1999/xlink" viewBox="0 0 200 200">
  <defs>
    <style>
      .cls-1 {
        fill: url(#linear-gradient);
      }
    </style>
    <linearGradient id="linear-gradient" x1="29.96" y1="151.5" x2="164.13" y2="52.84" gradientUnits="userSpaceOnUse">
      <stop offset="0" stop-color="#374a5e"/>
      <stop offset=".08" stop-color="#47475d"/>
      <stop offset=".72" stop-color="#be3556"/>
      <stop offset=".99" stop-color="#ee2e54"/>
    </linearGradient>
  </defs>
  <path class="cls-1" d="M16.44,104.39c0-4.51,3.59-8.16,8.02-8.16s7.93,3.54,8.02,7.96v25.77c.01,4.55,1.83,8.86,4.95,11.95,.1,.09,.2,.18,.3,.28,3.13,3.18,3.13,8.34,0,11.51-3.13,3.18-8.2,3.18-11.33,0-6.27-6.14-9.95-14.66-9.96-23.74v-25.58h0ZM83.81,17.9l-51.16,29.94c-10,5.86-16.12,16.69-16.23,28.32v7.67c.06,4.45,3.63,8.04,8.03,8.04s8.02-3.65,8.02-8.16v-4.32c.04-7.73,3.99-14.52,9.94-18.44l22.79-13.34,26.62-15.59c5.08-2.97,11.3-2.96,16.37,.01l8.98,5.26-32.64,19.15c-.08,.04-.15,.08-.21,.13l-21.07,12.35c-8.87,5.21-14.04,15.02-13.48,25.32v3.65l-.02,20c.31,4.28,2.64,8.34,6.57,10.65,3.7,2.17,8,2.31,11.67,.77l32.16-18.86,32.16-18.86-.03,14.8c.32,3.42-1.26,6.87-4.31,8.77l-.21,.13-43.53,25.53-19.38,11.36-4.9,2.88c-2.06,1.42-3.41,3.82-3.41,6.55s1.3,5.02,3.28,6.45l6.93,4.06,17,9.96c10.04,5.88,22.38,5.91,32.42,.04l51.16-29.94c9.99-5.86,16.12-16.7,16.24-28.32v-28.08c-.17-4.37-3.7-7.86-8.04-7.86s-8.02,3.65-8.02,8.15v24.56c-.04,7.73-3.99,14.52-9.94,18.44l-22.79,13.34-26.62,15.58c-5.07,2.97-11.3,2.96-16.37-.01l-8.98-5.26,32.63-19.15c.08-.04,.15-.08,.22-.13l21.07-12.36c8.87-5.2,14.05-15.02,13.49-25.32v-23.64c-.3-4.28-2.62-8.34-6.56-10.65-3.7-2.17-8-2.31-11.67-.76l-32.16,18.86-32.15,18.85,.02-14.79c-.32-3.42,1.26-6.88,4.31-8.77l.21-.13,43.53-25.53,19.38-11.37,4.9-2.87c2.06-1.42,3.41-3.83,3.41-6.55s-1.3-5.02-3.28-6.46l-6.93-4.06-17-9.96c-5.03-2.95-10.64-4.42-16.24-4.42s-11.16,1.47-16.17,4.4h0Zm78.45,28.39c-3.13,3.18-3.13,8.34,0,11.51,.09,.1,.19,.19,.29,.28,3.12,3.09,4.94,7.41,4.94,11.95v5.44c.06,4.46,3.63,8.06,8.03,8.06s7.89-3.52,8.02-7.91v-5.59c0-9.09-3.7-17.6-9.96-23.75-1.56-1.59-3.61-2.38-5.67-2.38s-4.1,.8-5.66,2.38h0Z"/>
</svg>