<?xml version="1.0" encoding="UTF-8"?>
<svg id="Layer_1" data-name="Layer 1" xmlns="http://www.w3.org/2000/svg" viewBox="0 0 400 120">
  <defs>
    <style>
      .cls-1 {
        fill: #fff;
      }
    </style>
  </defs>
  <path class="cls-1" d="M82.92,40.93c-1.42-1.44-1.42-3.77,0-5.2,.71-.72,1.63-1.08,2.56-1.08s1.86,.36,2.56,1.08c2.83,2.78,4.5,6.63,4.5,10.74v2.53c-.06,1.98-1.66,3.57-3.62,3.57s-3.6-1.63-3.63-3.64v-2.46c0-2.05-.83-4-2.24-5.4-.04-.04-.09-.08-.13-.13Zm6,13.6c-2,0-3.63,1.65-3.63,3.68v11.1c-.02,3.49-1.8,6.56-4.49,8.33l-10.3,6.03-12.03,7.04c-2.29,1.34-5.11,1.34-7.4,0l-4.06-2.38,14.75-8.66s.07-.04,.1-.06l9.52-5.59c4.01-2.35,6.35-6.79,6.1-11.45v-10.68c-.13-1.94-1.18-3.77-2.97-4.82-1.67-.98-3.62-1.04-5.27-.34l-14.53,8.53-14.53,8.52v-6.68c-.13-1.55,.58-3.11,1.96-3.96l.09-.06,19.67-11.54,8.76-5.14,2.21-1.3c.93-.64,1.54-1.73,1.54-2.96s-.59-2.27-1.48-2.92l-3.13-1.83-7.69-4.5c-2.27-1.33-4.81-2-7.34-2s-5.04,.66-7.31,1.99l-23.12,13.53c-4.52,2.65-7.28,7.54-7.34,12.8v3.46c.03,2.01,1.64,3.63,3.63,3.63s3.63-1.65,3.63-3.69v-1.95c.02-3.49,1.81-6.56,4.49-8.33l10.3-6.03,12.03-7.04c2.29-1.34,5.11-1.34,7.4,0l4.06,2.38-14.75,8.66s-.07,.04-.1,.06l-9.52,5.58c-4.01,2.35-6.35,6.79-6.09,11.45v10.69c.13,1.94,1.18,3.77,2.96,4.81,1.67,.98,3.62,1.04,5.28,.35l14.53-8.53,14.53-8.53v6.69c.13,1.54-.58,3.11-1.96,3.96l-.09,.06-19.67,11.54-8.76,5.14-2.21,1.3c-.93,.64-1.54,1.73-1.54,2.96s.59,2.27,1.48,2.92l3.13,1.83,7.68,4.5c4.54,2.66,10.11,2.67,14.65,.02l23.12-13.53c4.52-2.65,7.28-7.55,7.34-12.8v-12.69c-.08-1.97-1.67-3.55-3.63-3.55Zm-62.42,24.42c-1.41-1.4-2.23-3.34-2.23-5.4v-11.65c-.05-2-1.65-3.6-3.63-3.6s-3.63,1.65-3.63,3.69v11.56c0,4.1,1.67,7.96,4.5,10.73,1.41,1.44,3.7,1.44,5.12,0,1.41-1.44,1.41-3.76,0-5.2-.04-.04-.09-.09-.13-.13Zm109.29-17.28c-1.92-.93-4.52-1.77-7.78-2.51-2.38-.63-4.2-1.2-5.44-1.7-1.24-.5-2.16-1.09-2.75-1.76-.59-.67-.88-1.51-.88-2.52,0-1.49,.58-2.62,1.73-3.41,1.15-.78,2.74-1.17,4.76-1.17,1.83,0,3.37,.4,4.62,1.2,1.25,.8,1.96,1.8,2.15,2.99,.29,.67,.84,1,1.65,1h5.22c.33,0,.61-.12,.82-.36,.22-.25,.33-.52,.33-.81-.07-1.6-.69-3.21-1.84-4.83-1.15-1.62-2.84-2.97-5.06-4.05-2.22-1.08-4.85-1.62-7.89-1.62s-5.43,.48-7.62,1.45-3.86,2.3-5.03,3.99c-1.17,1.7-1.76,3.62-1.76,5.78,0,3.2,1.01,5.66,3.02,7.38,2.02,1.71,5.19,3.09,9.51,4.13,2.64,.71,4.63,1.32,5.97,1.82,1.34,.5,2.34,1.09,3,1.76,.66,.67,.99,1.51,.99,2.52,0,1.53-.65,2.73-1.95,3.6-1.3,.88-3.23,1.32-5.8,1.32-2.27,0-4.06-.43-5.36-1.29-1.3-.86-2.13-1.92-2.5-3.18-.22-.33-.46-.6-.71-.78-.26-.19-.59-.28-.99-.28h-5.01c-.33,0-.6,.12-.82,.36-.22,.24-.33,.51-.33,.81,.08,1.94,.71,3.73,1.92,5.36,1.21,1.64,2.99,2.96,5.33,3.97,2.35,1.01,5.17,1.51,8.47,1.51,3.12,0,5.85-.46,8.22-1.4,2.36-.93,4.2-2.28,5.5-4.05,1.3-1.77,1.95-3.86,1.95-6.28,0-2.2-.46-4.01-1.38-5.42-.92-1.42-2.34-2.59-4.26-3.52Zm40.89-19h-4.73c-.4,0-.72,.13-.96,.39-.24,.26-.36,.6-.36,1.01v24.36l-15.73-24.81c-.37-.63-.9-.95-1.6-.95h-4.29c-.4,0-.72,.13-.96,.39-.24,.26-.36,.6-.36,1.01v36.37c0,.37,.13,.69,.39,.95,.26,.26,.57,.39,.93,.39h4.73c.4,0,.72-.13,.96-.39,.24-.26,.36-.58,.36-.95v-23.86l15.67,24.25c.37,.63,.92,.95,1.65,.95h4.34c.37,0,.68-.13,.93-.39,.26-.26,.39-.6,.39-1.01V44.07c0-.41-.13-.75-.39-1.01-.26-.26-.59-.39-.99-.39Zm40.86,14.81c.08,2.16,.11,3.76,.11,4.81s-.04,2.59-.11,4.75c-.14,5.06-1.62,8.88-4.43,11.45-2.81,2.57-6.7,3.86-11.68,3.86s-8.93-1.29-11.71-3.86c-2.79-2.57-4.25-6.39-4.4-11.45-.04-1.08-.05-2.67-.05-4.75s.02-3.72,.05-4.81c.15-4.95,1.65-8.75,4.51-11.4,2.86-2.64,6.73-3.96,11.6-3.96s8.7,1.32,11.58,3.96c2.88,2.65,4.39,6.45,4.54,11.4Zm-7.86,4.75c0-.86-.03-2.37-.11-4.53-.11-3.05-.9-5.34-2.37-6.85-1.47-1.51-3.39-2.26-5.77-2.26s-4.36,.75-5.83,2.26c-1.47,1.51-2.23,3.79-2.31,6.85-.04,1.08-.05,2.59-.05,4.53s.02,3.41,.05,4.53c.08,3.05,.84,5.33,2.28,6.84,1.45,1.51,3.4,2.26,5.86,2.26s4.4-.75,5.83-2.24c1.43-1.49,2.2-3.78,2.31-6.87,.07-2.24,.11-3.75,.11-4.53Zm136.32-4.75c.08,2.16,.11,3.76,.11,4.81s-.04,2.59-.11,4.75c-.14,5.06-1.62,8.88-4.43,11.45-2.81,2.57-6.7,3.86-11.68,3.86s-8.93-1.29-11.71-3.86c-2.79-2.57-4.25-6.39-4.4-11.45-.04-1.08-.05-2.67-.05-4.75s.02-3.72,.05-4.81c.15-4.95,1.65-8.75,4.51-11.4,2.86-2.64,6.73-3.96,11.6-3.96s8.7,1.32,11.58,3.96c2.88,2.65,4.39,6.45,4.54,11.4Zm-7.86,4.75c0-.86-.04-2.37-.11-4.53-.11-3.05-.9-5.34-2.36-6.85-1.47-1.51-3.39-2.26-5.77-2.26s-4.36,.75-5.83,2.26c-1.47,1.51-2.23,3.79-2.31,6.85-.03,1.08-.05,2.59-.05,4.53s.02,3.41,.05,4.53c.08,3.05,.83,5.33,2.28,6.84,1.45,1.51,3.4,2.26,5.86,2.26s4.4-.75,5.83-2.24c1.43-1.49,2.2-3.78,2.31-6.87,.08-2.24,.11-3.75,.11-4.53Zm44.71,17.71l-12.32-18.1,11.49-17.32c.14-.3,.22-.52,.22-.67,0-.34-.12-.61-.36-.84-.24-.22-.5-.33-.8-.33h-5.44c-.73,0-1.3,.35-1.7,1.06l-8.09,11.96-8.03-11.96c-.48-.71-1.04-1.06-1.71-1.06h-5.77c-.29,0-.56,.11-.8,.33-.24,.23-.36,.5-.36,.84,0,.22,.08,.45,.22,.67l11.49,17.32-12.26,18.1c-.15,.3-.22,.52-.22,.67,0,.33,.12,.61,.36,.84,.23,.22,.5,.34,.8,.34h5.72c.66,0,1.23-.34,1.7-1.01l8.58-12.57,8.69,12.57c.48,.67,1.04,1.01,1.71,1.01h5.88c.33,0,.6-.11,.82-.34,.22-.22,.33-.5,.33-.84,0-.22-.05-.45-.16-.67Zm-76.27-15.2c1.06,1.6,1.59,3.43,1.59,5.48,0,3.46-1.15,6.26-3.46,8.38-2.31,2.12-5.54,3.19-9.68,3.19h-16.44c-.36,0-.68-.13-.93-.39-.26-.26-.39-.58-.39-.95V44.07c0-.41,.12-.75,.36-1.01,.24-.26,.56-.39,.96-.39h15.95c4.29,0,7.5,.96,9.63,2.88,2.13,1.92,3.19,4.53,3.19,7.85,0,1.94-.47,3.59-1.4,4.94-.93,1.36-2.02,2.34-3.27,2.94,1.54,.71,2.84,1.86,3.91,3.46Zm-21.56-6.03h8.53c1.87,0,3.31-.46,4.32-1.39,1.01-.93,1.51-2.18,1.51-3.75s-.49-2.77-1.48-3.63c-.99-.86-2.44-1.29-4.34-1.29h-8.53v10.06Zm15.12,11.46c0-1.64-.54-2.99-1.62-4.05-1.08-1.06-2.55-1.59-4.43-1.59h-9.07v11.29h9.07c1.91,0,3.39-.53,4.45-1.59,1.06-1.06,1.6-2.41,1.6-4.05Zm-46.36-27.49h-4.95c-.48,0-.86,.13-1.16,.39-.29,.26-.48,.54-.55,.84l-9.24,28.61-9.18-28.61c-.11-.3-.31-.58-.6-.84-.29-.26-.68-.39-1.16-.39h-4.89c-.33,0-.61,.11-.82,.33-.22,.23-.33,.5-.33,.84,0,.22,.02,.39,.05,.5l11.77,35.87c.33,1.04,1.04,1.57,2.14,1.57h6.11c1.06,0,1.78-.52,2.14-1.57l11.71-35.87,.11-.5c0-.34-.12-.61-.36-.84-.24-.22-.5-.33-.8-.33Zm13.58,0h-5.28c-.37,0-.68,.12-.94,.36-.25,.24-.38,.57-.38,.98v36.43c0,.37,.13,.69,.38,.95,.26,.26,.57,.39,.94,.39h5.28c.4,0,.72-.13,.96-.39,.24-.26,.36-.58,.36-.95V44.01c0-.41-.12-.74-.36-.98-.24-.24-.56-.36-.96-.36Z"/>
</svg>