<?xml version="1.0" encoding="UTF-8"?>
<svg id="Layer_1" data-name="Layer 1" xmlns="http://www.w3.org/2000/svg" xmlns:xlink="http://www.w3.org/1999/xlink" viewBox="0 0 400 120">
  <defs>
    <style>
      .cls-1 {
        fill: #364a5e;
      }

      .cls-2 {
        fill: url(#linear-gradient);
      }
    </style>
    <linearGradient id="linear-gradient" x1="23.12" y1="83.28" x2="83.76" y2="38.68" gradientUnits="userSpaceOnUse">
      <stop offset="0" stop-color="#374a5e"/>
      <stop offset=".08" stop-color="#47475d"/>
      <stop offset=".72" stop-color="#be3556"/>
      <stop offset=".99" stop-color="#ee2e54"/>
    </linearGradient>
  </defs>
  <path class="cls-2" d="M17.01,61.98c0-2.04,1.62-3.69,3.63-3.69s3.58,1.6,3.63,3.6v11.65c0,2.06,.83,4,2.24,5.4,.05,.04,.09,.08,.13,.13,1.41,1.44,1.41,3.77,0,5.2-1.42,1.44-3.71,1.44-5.12,0-2.83-2.78-4.5-6.63-4.5-10.73v-11.56h0ZM47.46,22.89l-23.12,13.53c-4.52,2.65-7.28,7.54-7.34,12.8v3.46c.03,2.01,1.64,3.63,3.63,3.63s3.63-1.65,3.63-3.69v-1.95c.02-3.49,1.81-6.56,4.49-8.33l10.3-6.03,12.03-7.04c2.29-1.34,5.11-1.34,7.4,0l4.06,2.38-14.75,8.66s-.07,.04-.1,.06l-9.52,5.58c-4.01,2.35-6.35,6.79-6.09,11.45v10.69c.13,1.94,1.18,3.77,2.96,4.81,1.67,.98,3.62,1.04,5.28,.35l14.53-8.53,14.53-8.53v6.69c.13,1.54-.58,3.11-1.96,3.96l-.09,.06-19.67,11.54-8.76,5.14-2.21,1.3c-.93,.64-1.54,1.73-1.54,2.96s.59,2.27,1.48,2.92l3.13,1.83,7.68,4.5c4.54,2.66,10.11,2.67,14.65,.02l23.12-13.53c4.52-2.65,7.28-7.55,7.34-12.8v-12.69c-.08-1.97-1.67-3.55-3.63-3.55s-3.63,1.65-3.63,3.68v11.1c-.02,3.49-1.8,6.56-4.49,8.33l-10.3,6.03-12.03,7.04c-2.29,1.34-5.11,1.34-7.4,0l-4.06-2.38,14.75-8.66s.07-.04,.1-.06l9.52-5.59c4.01-2.35,6.35-6.79,6.1-11.45v-10.68c-.13-1.94-1.18-3.77-2.97-4.82-1.67-.98-3.62-1.04-5.27-.34l-14.53,8.53-14.53,8.52v-6.68c-.13-1.55,.58-3.11,1.96-3.96l.09-.06,19.67-11.54,8.76-5.14,2.21-1.3c.93-.64,1.54-1.73,1.54-2.96s-.59-2.27-1.48-2.92l-3.13-1.83-7.69-4.5c-2.27-1.33-4.81-2-7.34-2s-5.04,.66-7.31,1.99h0Zm35.46,12.83c-1.42,1.44-1.42,3.77,0,5.2,.04,.04,.09,.09,.13,.13,1.41,1.4,2.23,3.35,2.23,5.4v2.46c.03,2.02,1.64,3.64,3.63,3.64s3.57-1.59,3.63-3.57v-2.53c0-4.11-1.67-7.96-4.5-10.74-.71-.72-1.63-1.08-2.56-1.08s-1.85,.36-2.56,1.08h0Z"/>
  <path class="cls-1" d="M125.75,82.34c-3.3,0-6.12-.5-8.47-1.51-2.35-1.01-4.12-2.33-5.33-3.97-1.21-1.64-1.85-3.42-1.92-5.36,0-.3,.11-.57,.33-.81,.22-.24,.5-.36,.82-.36h5.01c.4,0,.73,.09,.99,.28,.26,.18,.5,.45,.71,.78,.37,1.27,1.2,2.33,2.5,3.18,1.3,.86,3.09,1.29,5.36,1.29,2.57,0,4.5-.44,5.8-1.32,1.3-.87,1.95-2.08,1.95-3.6,0-1.01-.33-1.85-.99-2.52-.66-.67-1.66-1.26-3-1.76-1.34-.5-3.33-1.11-5.97-1.82-4.33-1.04-7.5-2.42-9.51-4.13-2.02-1.71-3.02-4.17-3.02-7.38,0-2.16,.59-4.09,1.76-5.78,1.17-1.69,2.85-3.03,5.03-3.99,2.18-.97,4.72-1.45,7.62-1.45s5.67,.54,7.89,1.62c2.22,1.08,3.91,2.43,5.06,4.05,1.16,1.62,1.77,3.23,1.84,4.83,0,.3-.11,.57-.33,.81-.22,.24-.5,.36-.82,.36h-5.22c-.81,0-1.36-.33-1.65-1-.18-1.19-.9-2.19-2.15-2.99-1.24-.8-2.79-1.2-4.62-1.2-2.02,0-3.6,.39-4.76,1.17-1.15,.78-1.73,1.92-1.73,3.41,0,1.01,.29,1.84,.88,2.52,.59,.67,1.5,1.26,2.75,1.76,1.25,.5,3.06,1.07,5.44,1.7,3.26,.75,5.86,1.58,7.78,2.51,1.92,.93,3.34,2.11,4.26,3.52,.92,1.41,1.38,3.22,1.38,5.42,0,2.42-.65,4.52-1.95,6.28-1.3,1.77-3.13,3.12-5.5,4.05-2.37,.93-5.11,1.4-8.22,1.4m23.26-.56c-.36,0-.68-.13-.93-.39-.26-.26-.39-.58-.39-.95V44.07c0-.41,.12-.75,.36-1.01,.24-.26,.56-.39,.96-.39h4.29c.7,0,1.23,.32,1.6,.95l15.73,24.81v-24.36c0-.41,.12-.75,.36-1.01,.24-.26,.56-.39,.96-.39h4.73c.4,0,.73,.13,.99,.39,.26,.26,.39,.6,.39,1.01v36.32c0,.41-.13,.75-.39,1.01-.26,.26-.57,.39-.93,.39h-4.34c-.73,0-1.28-.32-1.65-.95l-15.67-24.25v23.86c0,.37-.12,.69-.36,.95-.24,.26-.56,.39-.96,.39h-4.73Zm52.41,.56c-5.02,0-8.93-1.29-11.71-3.86-2.79-2.57-4.25-6.39-4.4-11.45-.04-1.08-.05-2.67-.05-4.75s.02-3.72,.05-4.81c.15-4.95,1.65-8.75,4.51-11.4,2.86-2.64,6.73-3.96,11.6-3.96s8.7,1.32,11.57,3.96c2.88,2.65,4.39,6.45,4.54,11.4,.08,2.16,.11,3.76,.11,4.81s-.04,2.59-.11,4.75c-.14,5.06-1.62,8.88-4.43,11.45-2.81,2.57-6.7,3.86-11.68,3.86m0-6.48c2.45,0,4.4-.75,5.83-2.24,1.43-1.49,2.2-3.78,2.31-6.87,.07-2.24,.11-3.75,.11-4.53,0-.86-.03-2.37-.11-4.53-.11-3.05-.9-5.34-2.37-6.85-1.47-1.51-3.39-2.26-5.77-2.26s-4.36,.75-5.83,2.26c-1.47,1.51-2.23,3.79-2.31,6.85-.04,1.08-.05,2.59-.05,4.53s.02,3.41,.05,4.53c.08,3.05,.84,5.33,2.28,6.84,1.45,1.51,3.4,2.26,5.86,2.26m33.43,5.92c-1.1,0-1.81-.52-2.14-1.57l-11.77-35.87c-.03-.11-.05-.28-.05-.5,0-.34,.11-.61,.33-.84,.22-.22,.5-.33,.82-.33h4.89c.48,0,.87,.13,1.16,.39,.29,.26,.5,.54,.6,.84l9.18,28.61,9.24-28.61c.07-.3,.25-.58,.55-.84,.29-.26,.68-.39,1.16-.39h4.95c.29,0,.56,.11,.8,.33,.24,.23,.36,.5,.36,.84l-.11,.5-11.71,35.87c-.37,1.04-1.08,1.57-2.14,1.57h-6.11Zm27.22,0c-.37,0-.68-.13-.94-.39-.25-.26-.38-.58-.38-.95V44.01c0-.41,.13-.74,.38-.98,.26-.24,.57-.36,.94-.36h5.28c.4,0,.72,.12,.96,.36,.24,.24,.36,.57,.36,.98v36.43c0,.37-.12,.69-.36,.95-.24,.26-.56,.39-.96,.39h-5.28Zm16.5,0c-.36,0-.68-.13-.93-.39-.26-.26-.39-.58-.39-.95V44.07c0-.41,.12-.75,.36-1.01s.56-.39,.96-.39h15.95c4.29,0,7.5,.96,9.63,2.88,2.13,1.92,3.19,4.53,3.19,7.85,0,1.94-.47,3.59-1.4,4.94-.93,1.36-2.02,2.34-3.27,2.94,1.54,.71,2.84,1.86,3.91,3.46,1.06,1.6,1.59,3.43,1.59,5.48,0,3.46-1.15,6.26-3.46,8.38-2.31,2.12-5.54,3.19-9.68,3.19h-16.44Zm14.96-23.08c1.87,0,3.31-.46,4.32-1.39,1.01-.93,1.51-2.18,1.51-3.75s-.49-2.77-1.48-3.63c-.99-.86-2.44-1.29-4.34-1.29h-8.53v10.06h8.53Zm.55,17.1c1.91,0,3.39-.53,4.45-1.59,1.06-1.06,1.6-2.41,1.6-4.05s-.54-2.99-1.62-4.05c-1.08-1.06-2.55-1.59-4.43-1.59h-9.07v11.29h9.07Zm35.8,6.54c-5.02,0-8.93-1.29-11.71-3.86-2.79-2.57-4.25-6.39-4.4-11.45-.04-1.08-.05-2.67-.05-4.75s.02-3.72,.05-4.81c.15-4.95,1.65-8.75,4.51-11.4,2.86-2.64,6.73-3.96,11.6-3.96s8.7,1.32,11.58,3.96c2.88,2.65,4.39,6.45,4.54,11.4,.08,2.16,.11,3.76,.11,4.81s-.04,2.59-.11,4.75c-.14,5.06-1.62,8.88-4.43,11.45-2.81,2.57-6.7,3.86-11.68,3.86m0-6.48c2.46,0,4.4-.75,5.83-2.24,1.43-1.49,2.2-3.78,2.31-6.87,.08-2.24,.11-3.75,.11-4.53,0-.86-.04-2.37-.11-4.53-.11-3.05-.9-5.34-2.36-6.85-1.47-1.51-3.39-2.26-5.77-2.26s-4.36,.75-5.83,2.26c-1.47,1.51-2.23,3.79-2.31,6.85-.03,1.08-.05,2.59-.05,4.53s.02,3.41,.05,4.53c.08,3.05,.83,5.33,2.28,6.84,1.45,1.51,3.4,2.26,5.86,2.26m19.69,5.92c-.29,0-.56-.11-.8-.34-.24-.22-.36-.5-.36-.84,0-.15,.07-.37,.22-.67l12.26-18.1-11.49-17.32c-.14-.22-.22-.45-.22-.67,0-.34,.12-.61,.36-.84,.24-.22,.5-.33,.8-.33h5.77c.66,0,1.23,.35,1.7,1.06l8.03,11.96,8.09-11.96c.4-.71,.97-1.06,1.7-1.06h5.44c.29,0,.56,.11,.8,.33,.23,.23,.36,.5,.36,.84,0,.15-.08,.37-.22,.67l-11.49,17.32,12.32,18.1c.11,.22,.16,.45,.16,.67,0,.33-.11,.61-.33,.84-.22,.22-.5,.34-.82,.34h-5.88c-.66,0-1.23-.34-1.7-1.01l-8.69-12.57-8.58,12.57c-.48,.67-1.04,1.01-1.7,1.01h-5.72Z"/>
</svg>